<?xml version="1.0" encoding="utf-8"?>
<!-- Generator: Adobe Illustrator 27.5.0, SVG Export Plug-In . SVG Version: 6.00 Build 0)  -->
<svg version="1.1" xmlns="http://www.w3.org/2000/svg" xmlns:xlink="http://www.w3.org/1999/xlink" x="0px" y="0px"
	 viewBox="0 0 48 48" style="enable-background:new 0 0 48 48;" xml:space="preserve">
<style type="text/css">
	.st0{display:none;}
	.st1{display:inline;}
	.st2{fill:#00A9CE;}
	.st3{display:inline;fill:#00A2C6;}
	.st4{fill:#00A2C6;}
</style>
<g id="Layer_1" class="st0">
	<g class="st1">
		<path class="st2" d="M13.5,12c0.4-0.3,0.4-0.9,0.1-1.3c-0.3-0.4-0.9-0.4-1.3-0.1c-3.6,3.2-5.6,7.6-5.6,12.1c0,3.3,1.1,6.5,3.1,9.3
			c0.2,0.3,0.5,0.4,0.8,0.4c0.2,0,0.4-0.1,0.5-0.2c0.4-0.3,0.5-0.9,0.2-1.3c-1.8-2.5-2.7-5.3-2.7-8.2C8.5,18.7,10.3,14.9,13.5,12z"
			/>
		<path class="st2" d="M8.8,37.4c-4.5-3.9-6.9-9.1-6.9-14.6c0-5.4,2.4-10.5,6.7-14.4C9,8.1,9,7.5,8.7,7.1C8.3,6.7,7.7,6.7,7.3,7
			C5,9.1,3.2,11.4,2,14.1c-1.3,2.7-2,5.7-2,8.7c0,3.1,0.7,6,2,8.8c1.3,2.7,3.2,5.1,5.5,7.1C7.7,38.9,8,39,8.2,39
			c0.3,0,0.5-0.1,0.7-0.3C9.2,38.3,9.2,37.7,8.8,37.4z"/>
		<path class="st2" d="M35.8,10.6c-0.4-0.3-1-0.3-1.3,0.1c-0.3,0.4-0.3,1,0.1,1.3c3.2,2.9,5,6.7,5,10.8c0,2.9-0.9,5.8-2.7,8.2
			c-0.3,0.4-0.2,1,0.2,1.3c0.2,0.1,0.4,0.2,0.5,0.2c0.3,0,0.6-0.1,0.8-0.4c2-2.8,3.1-6,3.1-9.3C41.4,18.2,39.4,13.9,35.8,10.6z"/>
		<path class="st2" d="M40.7,7c-0.4-0.3-1-0.3-1.3,0.1s-0.3,1,0.1,1.3c4.3,3.8,6.7,8.9,6.7,14.4s-2.5,10.7-6.9,14.6
			c-0.4,0.3-0.4,0.9-0.1,1.3c0.2,0.2,0.4,0.3,0.7,0.3c0.2,0,0.4-0.1,0.6-0.2c2.4-2.1,4.2-4.5,5.5-7.1c1.4-2.8,2-5.8,2-8.8
			s-0.7-5.9-2-8.7C44.8,11.4,43,9.1,40.7,7z"/>
		<path class="st2" d="M25.4,3.2c-0.2-0.6-0.7-1.1-1.4-1.1c-0.6,0-1.2,0.4-1.4,1.1L13,42.4c-0.2,0.7,0.3,1.5,1,1.7s1.5-0.3,1.7-1
			L24,9.4l8.3,33.7c0.2,0.6,0.7,1.1,1.4,1.1c0.1,0,0.2,0,0.3,0c0.7-0.2,1.2-0.9,1-1.7L25.4,3.2z"/>
	</g>
</g>
<g id="Layer_2" class="st0">
	<path class="st3" d="M0.5,47.6l21.6-20.4l-11.8-5.8L37,1.1l10.8,5.3L31.7,19.3l12.1,6L0.5,47.6z M16.7,20.7L28,26.3l-7.7,7.3
		l16-8.2L25.4,20L41.5,7.2l-4.1-2L16.7,20.7L16.7,20.7z"/>
</g>
<g id="Layer_3">
	<path class="st4" d="M13.1,48l8.5-23H10.8L23.2,0.3h9.9l-7.2,15.4H37L13.1,48z M15.3,22.2h10.3l-3,8.2l8.8-11.9h-10l7.2-15.4h-3.8
		L15.3,22.2L15.3,22.2z"/>
</g>
</svg>
